<svg xmlns="http://www.w3.org/2000/svg"><symbol id="mecha-stilts" viewBox="0 0 256 256"><path d="M128 .2l110.7 63.9v127.8L128 255.8 17.3 191.9V64.1L128 .2z"/><path fill="#fff" d="M67.3 175.2a2 2 0 0 1-2.1-2.1v-25.4H37.5a2.1 2.1 0 0 1 0-4.2h15.8v-13.6a2 2 0 0 1 2.1-2.1h8.2a66.5 66.5 0 0 1 64.2-51c.2-.2.4-.2.8 0 31.1.2 56.9 22 63.8 51h8.2a2 2 0 0 1 2.1 2.1v13.6h15.7a2.1 2.1 0 1 1 0 4.2h-27.7v25.4a2 2 0 0 1-2.1 2.1zM57.5 132v11.5h141V132zm66.3-50.8c-26.9 1.7-49.3 21.2-55.8 46.6h22.4zm-54.4 66.5V171h56.5v-23.3zm56.5-62.3l-30.2 42.4h30.2zm4.2-4.4v46.8H188A62.4 62.4 0 0 0 130.1 81zm0 66.7V171h9.4v-23.3zm13.6 0V171h42.8v-23.3z"/></symbol><symbol id="space-bubbles" viewBox="0 0 256 256"><path d="M128 0l110.9 64v128L128 256 17.1 192V64L128 0z"/><path fill="#fff" d="M65.4 179.9l-4.9-6.9a2.2 2.2 0 0 1 .2-2.5l17.4-20.6h-8.5a2 2 0 0 1-2.1-2.1v-15.2a2 2 0 0 1 2.1-2.1h12.1a58.7 58.7 0 0 1-2.3-16 49.7 49.7 0 0 1 99.4 0 51.6 51.6 0 0 1-2.3 16h12.2a2 2 0 0 1 2.1 2.1v15.1a2 2 0 0 1-2.1 2.1H178l17.2 20.6a2.2 2.2 0 0 1 0 2.5l-4.8 6.9a2.2 2.2 0 0 1-2.7.6l-10.1-5.3H78.2l-10.1 5.3a2.3 2.3 0 0 1-2.7-.5zm32-30.1h-14l-18.5 21.9 2.9 4.2 35.5-18.7zm-25.7-15.1v10.9h115v-10.9zm14.5-4.2h86a50.8 50.8 0 0 0 2.5-16 45.5 45.5 0 0 0-91 0c-.1 5.5.4 11.2 2.5 16zm20.2 30.1l-20 10.5H115zm-3.6-10.7l17.7 21.2h15.1l17.7-21.2zm46.9 10.7l-8.7 10.5h28.6zm22.9-10.7h-13.9l-6.3 7.4 35.7 18.7 2.9-4z"/></symbol><symbol id="super-domes" viewBox="0 0 256 256"><path d="M128 .2l110.7 63.9v127.8L128 255.8 17.3 191.9V64.1L128 .2z"/><path fill="#fff" d="M63.8 175.2a2.1 2.1 0 0 1 0-4.2h10.5v-13.2H63.8a2 2 0 0 1-2.1-2.1v-41.3a2 2 0 0 1 2.1-2.1h13.8c1.1-29.8 23.3-46.2 50.4-46.2s49.3 16.4 50.4 46.2h13.9a2 2 0 0 1 2.1 2.1v41.4a2 2 0 0 1-2.1 2.1h-10.6V171h10.5a2.1 2.1 0 1 1 0 4.2zm2.1-58.8v37.2h124.2v-37.1zm12.6 41.4V171h13.4v-13.2zm3.4-45.6h92.4c-1.1-27.1-21.6-42-46.2-42s-45.2 15-46.3 42.1zm14.3 45.6V171h21v-13.2zm25.2 0V171h13.4v-13.2zm56.9-14.3h-51.4a2.1 2.1 0 1 1 0-4.2h51.2a2.1 2.1 0 0 1 0 4.2zM139 157.8V171h21v-13.2zm25.2 0V171h13.4v-13.2z"/></symbol></svg>